<svg width="73" height="32" viewBox="0 0 73 32" fill="none" xmlns="http://www.w3.org/2000/svg">
<path fill-rule="evenodd" clip-rule="evenodd" d="M21.2 8.71997C22 8.71997 22.56 9.35997 22.4 10.08C20.9618 16.4288 21.1822 23.041 23.04 29.28C23.28 30 22.64 30.72 21.92 30.72H2.56005C1.76005 30.72 1.12005 29.92 1.36005 29.2C3.28005 22.4 3.28005 17.68 2.00005 10.08C1.92005 9.27997 2.40005 8.79997 3.20005 8.79997H3.28005C7.20005 9.19997 9.68005 9.35997 12.24 9.35997C14.64 9.35997 17.2 9.19997 21.04 8.79997H21.2V8.71997ZM9.20005 14.16C9.20005 14.64 8.80005 15.04 8.24005 15.04C8.12791 15.0405 8.0169 15.0175 7.91423 14.9724C7.81156 14.9273 7.71952 14.8611 7.64409 14.7781C7.56865 14.6951 7.5115 14.5972 7.47635 14.4907C7.4412 14.3842 7.42883 14.2716 7.44005 14.16C7.42883 14.0484 7.4412 13.9357 7.47635 13.8292C7.5115 13.7227 7.56865 13.6248 7.64409 13.5418C7.71952 13.4588 7.81156 13.3927 7.91423 13.3475C8.0169 13.3024 8.12791 13.2794 8.24005 13.28C8.80005 13.28 9.20005 13.68 9.20005 14.08V14.16ZM16.08 15.04C16.56 15.04 17.04 14.64 17.04 14.16C17.04 13.68 16.56 13.28 16.08 13.28C15.8679 13.28 15.6644 13.3643 15.5144 13.5143C15.3643 13.6643 15.28 13.8678 15.28 14.08C15.256 14.1976 15.2588 14.319 15.2881 14.4354C15.3173 14.5518 15.3724 14.6601 15.4493 14.7523C15.5261 14.8445 15.6227 14.9182 15.7319 14.968C15.8411 15.0178 15.9601 15.0424 16.08 15.04ZM7.20005 17.2C7.20005 18.8 8.40005 22 12.16 22C16 22 17.2 18.8 17.2 17.2C17.2 16.88 16.88 16.56 16.5601 16.56C16.24 16.56 16 16.88 16 17.2C16 18.4 15.04 20.88 12.16 20.88C11.6701 20.8906 11.1829 20.8033 10.7272 20.6231C10.2714 20.443 9.85626 20.1736 9.50603 19.8308C9.15579 19.488 8.87754 19.0787 8.68762 18.627C8.4977 18.1752 8.39993 17.69 8.40005 17.2C8.40005 16.88 8.16005 16.56 7.76005 16.56C7.44005 16.56 7.20005 16.88 7.20005 17.2Z" fill="#0072FF"/>
<path d="M14.72 5.43999C15.0552 5.38086 15.3746 5.25336 15.6584 5.06544C15.9422 4.87751 16.1842 4.63318 16.3695 4.34766C16.5548 4.06214 16.6793 3.74153 16.7353 3.40581C16.7913 3.07008 16.7776 2.72642 16.6951 2.39621C16.6125 2.06601 16.4629 1.75633 16.2555 1.48646C16.0481 1.21659 15.7873 0.992297 15.4895 0.827553C15.1916 0.66281 14.8631 0.56114 14.5242 0.528871C14.1854 0.496602 13.8436 0.534426 13.52 0.639988C13.1848 0.69912 12.8654 0.826616 12.5816 1.01454C12.2978 1.20246 12.0557 1.44679 11.8704 1.73231C11.6852 2.01784 11.5606 2.33844 11.5046 2.67417C11.4486 3.0099 11.4623 3.35356 11.5449 3.68376C11.6274 4.01397 11.7771 4.32365 11.9845 4.59352C12.1919 4.86339 12.4526 5.08768 12.7505 5.25242C13.0483 5.41717 13.3769 5.51884 13.7157 5.55111C14.0545 5.58337 14.3964 5.54555 14.72 5.43999Z" fill="#FFCD00"/>
<path d="M20.16 7.99997V5.43998C20.24 4.63997 19.36 4.07997 18.56 4.55997L13.92 7.59997C13.6 7.75997 13.36 8.07997 13.28 8.39997C15.2 8.39997 17.28 8.23997 20.16 7.99997Z" fill="#00CDC7"/>
<path d="M4.40003 7.99999C7.52003 8.31999 9.84003 8.47999 12.16 8.47999L11.04 4.79999C10.9306 4.48412 10.702 4.22359 10.403 4.0741C10.104 3.9246 9.75837 3.89801 9.44003 3.99999L4.88003 5.19999C4.16003 5.35999 3.76003 6.15999 4.08003 6.79999L4.32003 7.91999L4.40003 7.99999Z" fill="#FF4646"/>
<path d="M62.5064 16.0034C62.1509 15.0289 61.4946 14.1841 60.6265 13.5833C59.7585 12.9826 58.7207 12.6551 57.654 12.6453C57.2505 12.6453 56.8525 12.7363 56.4915 12.9112C56.1306 13.0861 55.8166 13.3399 55.5745 13.6527C55.0546 14.2124 54.9968 15.1639 55.1123 15.8914V16.1153L55.3434 15.9474C55.5167 15.7795 55.9211 15.5556 56.3832 15.4437H57.1919C57.8273 15.4997 58.405 15.7795 58.8671 16.2272C59.4448 16.7869 59.6759 17.5145 59.6759 18.354C59.6759 19.2495 59.387 19.9211 58.8671 20.4808C58.2895 21.0405 57.5963 21.2643 56.7298 21.2643C56.3468 21.2739 55.9658 21.2095 55.6087 21.075C55.2517 20.9405 54.9259 20.7385 54.6502 20.4808C53.7837 19.6413 53.8992 18.0182 53.8992 18.0182V8.33581L53.7837 8.22387L53.4371 8.1679C53.1483 8.05597 52.8017 8 52.3973 8C51.8774 8 51.473 8.11194 51.1842 8.33581C50.8954 8.50371 50.7798 8.83951 50.7798 9.28726V17.8503C50.7798 18.7458 50.8954 19.5293 51.0687 20.2009C51.242 20.8726 51.5308 21.4322 51.8774 21.88C52.4551 22.5516 53.0905 23.0553 53.957 23.4471C55.6481 24.1434 57.5508 24.1835 59.2715 23.559C59.9821 23.3168 60.6321 22.9326 61.1795 22.4312C61.7268 21.9298 62.1593 21.3225 62.4487 20.6487C62.7375 19.9771 62.853 19.1935 62.853 18.354C62.853 17.4585 62.7375 16.675 62.4487 16.0034H62.5064ZM43.7323 8.1679L42.6926 8C42.1149 8 41.7683 8.11194 41.4217 8.33581C41.1906 8.50371 41.0173 8.83951 41.0173 9.28726V23.6709H44.1367V8.33581L43.7323 8.22387V8.1679ZM47.5449 11.3581C47.781 11.3624 48.0155 11.32 48.234 11.2334C48.4526 11.1467 48.6505 11.0178 48.8158 10.8543C49.1624 10.5745 49.3357 10.1827 49.3357 9.735C49.3357 9.28969 49.1531 8.86262 48.8281 8.54774C48.5031 8.23286 48.0623 8.05597 47.6027 8.05597C47.0828 8.05597 46.6784 8.1679 46.3318 8.50371C46.0264 8.82268 45.8608 9.24404 45.8697 9.67903C45.8697 10.1827 45.9852 10.5745 46.3318 10.8543C46.6518 11.1707 47.0878 11.3518 47.5449 11.3581ZM47.6605 12.9811C47.1406 12.9811 46.7362 13.0931 46.4474 13.3169C46.1585 13.4848 46.043 13.8206 46.043 14.3243V23.6709H49.1624V13.261L48.7003 13.149C48.4114 13.0371 48.0648 12.9811 47.6605 12.9811ZM66.9544 8.1679C66.6656 8.05597 66.319 8 65.9146 8C65.3947 8 64.9904 8.11194 64.7015 8.33581C64.4127 8.50371 64.2972 8.83951 64.2972 9.28726V23.6709H67.4166V8.33581L66.9544 8.22387V8.1679ZM70.767 11.3581C71.2241 11.3518 71.6601 11.1707 71.9801 10.8543C72.3267 10.5745 72.5 10.1827 72.5 9.735C72.5 9.28969 72.3174 8.86262 71.9924 8.54774C71.6674 8.23286 71.2266 8.05597 70.767 8.05597C70.2471 8.05597 69.8427 8.1679 69.4961 8.50371C69.1908 8.82268 69.0251 9.24404 69.034 9.67903C69.034 10.1827 69.2073 10.5745 69.4961 10.8543C69.6614 11.0178 69.8594 11.1467 70.0779 11.2334C70.2964 11.32 70.5309 11.3624 70.767 11.3581ZM70.8248 12.9811C70.3049 12.9811 69.9005 13.0931 69.6117 13.3169C69.3228 13.4848 69.2073 13.8206 69.2073 14.3243V23.6709H72.3267V13.261L71.8646 13.149C71.5757 13.0371 71.2291 12.9811 70.8248 12.9811ZM39.1688 16.0034C38.8133 15.0289 38.157 14.1841 37.2889 13.5833C36.4209 12.9826 35.3831 12.6551 34.3164 12.6453C33.9227 12.6539 33.5361 12.749 33.1858 12.9235C32.8356 13.098 32.5308 13.3474 32.2946 13.6527C31.7169 14.2124 31.7169 15.1639 31.8325 15.8914V16.1153L32.0635 15.9474C32.2368 15.7795 32.6412 15.5556 33.1033 15.4437H33.9121C34.5475 15.4997 35.0674 15.7795 35.5873 16.2272C36.1072 16.7869 36.396 17.5145 36.396 18.354C36.396 19.2495 36.1072 19.9211 35.5295 20.4808C34.9519 21.0405 34.3164 21.2084 33.4499 21.2084C33.067 21.2179 32.6859 21.1535 32.3289 21.019C31.9719 20.8845 31.646 20.6825 31.3703 20.4248C30.5038 19.5853 30.5616 17.9622 30.5616 17.9622V8.33581L30.5038 8.22387L30.1573 8.1679C29.8684 8.05597 29.5218 8 29.1175 8C28.5976 8 28.1932 8.11194 27.9044 8.33581C27.6155 8.50371 27.5 8.83951 27.5 9.28726V17.8503C27.5 18.7458 27.5578 19.5293 27.7888 20.2009C27.9621 20.8726 28.251 21.4322 28.5398 21.88C29.1175 22.5516 29.8107 23.0553 30.6772 23.4471C32.3514 24.1287 34.2304 24.1687 35.9339 23.559C36.6445 23.3168 37.2945 22.9326 37.8419 22.4312C38.3892 21.9298 38.8216 21.3225 39.111 20.6487C39.4576 19.9771 39.5732 19.1935 39.5732 18.354C39.5732 17.4585 39.4576 16.675 39.1688 16.0034Z" fill="#0072FF"/>
</svg>
