<svg width="199" height="32" viewBox="0 0 199 32" fill="none" xmlns="http://www.w3.org/2000/svg">
<path fill-rule="evenodd" clip-rule="evenodd" d="M13.6233 17.3098L9.98672 2.33666C9.88624 1.92703 9.70232 1.54254 9.44656 1.20718C9.19072 0.871832 8.86856 0.592834 8.50008 0.387615C8.1316 0.182396 7.72474 0.0553661 7.30496 0.0144612C6.88518 -0.0264437 6.46146 0.0196552 6.0603 0.149878L2.12498 1.42918C1.72348 1.55884 1.35303 1.76993 1.03681 2.04926C0.720582 2.32858 0.465377 2.67013 0.287145 3.05256C0.108913 3.43499 0.0114863 3.85007 0.000955708 4.27186C-0.00957496 4.69366 0.0670167 5.11309 0.225942 5.50394L6.09128 19.7556C6.38419 20.4725 6.93722 21.0522 7.63953 21.3785C8.34184 21.7048 9.14152 21.7536 9.87832 21.5152L11.5936 20.9574C12.3301 20.7182 12.9487 20.2091 13.3252 19.5325C13.7017 18.8558 13.8082 18.0618 13.6233 17.3098ZM14.1699 31.7962C13.3793 32.0518 12.5306 32.0674 11.731 31.841C10.9314 31.6146 10.2169 31.1565 9.67752 30.5243C9.13816 29.8922 8.79808 29.1145 8.7004 28.2893C8.60264 27.4641 8.7516 26.6284 9.12832 25.8878C9.50512 25.1471 10.093 24.5347 10.8175 24.1278C11.542 23.721 12.3709 23.5379 13.1994 23.6018C14.0279 23.6655 14.819 23.9734 15.4727 24.4864C16.1264 24.9994 16.6135 25.6946 16.8724 26.4842C17.045 27.0103 17.1119 27.5654 17.0694 28.1175C17.027 28.6697 16.8758 29.208 16.6246 29.7015C16.3736 30.1951 16.0274 30.6342 15.6062 30.9937C15.185 31.3531 14.6969 31.6258 14.1699 31.7962ZM22.906 27.9516C28.3021 26.1986 32.6579 19.977 30.4911 13.3059C28.322 6.63938 21.1419 4.16266 15.7458 5.91562C15.1401 6.11198 14.6312 6.53049 14.3215 7.08692C14.0119 7.64336 13.9246 8.2964 14.077 8.91472L14.6214 11.1568C14.7046 11.4934 14.8562 11.8093 15.0666 12.0847C15.2772 12.3602 15.5422 12.5894 15.8451 12.758C16.1481 12.9266 16.4825 13.031 16.8275 13.0647C17.1726 13.0985 17.5209 13.0608 17.8507 12.954L18.0721 12.8832C18.606 12.6934 19.1725 12.6126 19.7382 12.6454C20.3038 12.6783 20.8572 12.8242 21.3656 13.0745C21.8739 13.3248 22.327 13.6744 22.6979 14.1027C23.0689 14.531 23.3503 15.0294 23.5254 15.5682C23.7006 16.1071 23.7659 16.6757 23.7177 17.2402C23.6694 17.8048 23.5085 18.354 23.2444 18.8554C22.9803 19.3567 22.6185 19.8 22.1802 20.1592C21.7419 20.5183 21.2361 20.786 20.6926 20.9464L20.4713 21.0172C20.1421 21.1249 19.8386 21.2993 19.5797 21.5295C19.3209 21.7598 19.1122 22.0409 18.9669 22.3553C18.8215 22.6697 18.7425 23.0107 18.7347 23.357C18.727 23.7034 18.7908 24.0476 18.922 24.3682L19.7918 26.5063C20.0323 27.096 20.4871 27.5729 21.0649 27.841C21.6426 28.1091 22.3003 28.1486 22.906 27.9516Z" fill="#E31E52"/>
<path fill-rule="evenodd" clip-rule="evenodd" d="M47.2505 10.8137C50.1189 9.27765 53.6537 9.55869 56.0485 11.9513C58.3459 14.2532 58.3924 17.5621 58.3924 18.8636C58.3924 22.5488 56.6903 25.6541 53.45 26.6102C49.1362 27.9316 42.5294 26.7652 42.5294 26.7652C42.3829 26.7489 42.2474 26.6791 42.149 26.5693C42.0507 26.4595 41.9961 26.3173 41.996 26.1698V5.80711C41.996 5.67855 42.047 5.55526 42.138 5.46436C42.2289 5.37345 42.3521 5.32239 42.4807 5.32239H46.5267C46.6553 5.32239 46.7785 5.37345 46.8694 5.46436C46.9604 5.55526 47.0114 5.67855 47.0114 5.80711V10.6765C47.0116 10.7044 47.019 10.7317 47.033 10.7558C47.0471 10.78 47.0673 10.8 47.0914 10.8139C47.1157 10.8277 47.143 10.8351 47.1709 10.835C47.1989 10.835 47.2263 10.8277 47.2505 10.8137ZM47.2084 22.4846C48.4523 22.8343 50.9357 22.9671 52.3566 21.4908V21.4953C53.3305 20.5479 54.4704 17.4847 52.1817 15.1961C51.2168 14.2089 49.6365 13.6755 47.4408 14.5918C47.3108 14.654 47.2013 14.752 47.1252 14.8744C47.0491 14.9967 47.0096 15.1383 47.0114 15.2824V22.2057C47.0094 22.2673 47.0277 22.3278 47.0632 22.3781C47.0987 22.4284 47.1497 22.4658 47.2084 22.4846ZM117.311 5.82042V26.8825C117.312 26.9681 117.346 27.0499 117.406 27.1104C117.467 27.1709 117.549 27.2051 117.634 27.2057H122.033C122.118 27.2057 122.201 27.1717 122.262 27.1112C122.322 27.0506 122.357 26.9685 122.358 26.8825V5.82042C122.358 5.69186 122.306 5.56857 122.216 5.47767C122.125 5.38676 122.002 5.3357 121.873 5.3357H117.792C117.664 5.33687 117.542 5.38845 117.452 5.47923C117.362 5.57 117.311 5.69263 117.311 5.82042ZM78.0158 23.4806C77.7685 23.4459 77.534 23.3492 77.3341 23.1995C77.1128 23.0048 76.9954 22.6616 76.9711 22.1039V10.4507C76.9705 10.3388 76.9258 10.2316 76.8466 10.1525C76.7675 10.0733 76.6603 10.0285 76.5484 10.028H72.4005C72.2885 10.028 72.1809 10.0725 72.1016 10.1518C72.0224 10.2311 71.9778 10.3386 71.9778 10.4507V21.2606C71.98 21.2768 71.98 21.2932 71.9778 21.3093C71.5794 22.717 69.9283 23.142 68.6335 22.9228C66.7942 22.613 66.0261 21.0681 66.0925 19.2885C66.0925 19.2266 66.1169 11.0528 66.1213 10.4507C66.1213 10.3386 66.0768 10.2311 65.9975 10.1518C65.9182 10.0725 65.8107 10.028 65.6986 10.028H61.5597C61.4485 10.028 61.3419 10.072 61.2631 10.1504C61.1843 10.2288 61.1397 10.3351 61.1391 10.4463C61.1391 12.2169 61.1258 20.7294 61.1258 20.7294C61.1258 22.0574 61.542 26.3601 65.8668 27.1481C67.9009 27.5177 70.3201 26.8648 72.2744 25.4748C72.2924 25.4614 72.3129 25.4517 72.3347 25.4464C72.3565 25.4412 72.3792 25.4404 72.4013 25.4441C72.4235 25.4478 72.4446 25.456 72.4635 25.4681C72.4825 25.4802 72.4986 25.496 72.5112 25.5147C72.982 26.164 73.6519 26.642 74.4191 26.8759C75.5605 27.2512 77.1109 27.0998 77.5792 27.0541L77.5909 27.0529C77.6644 27.0449 77.7329 27.0119 77.7852 26.9596C77.8376 26.9073 77.8704 26.8387 77.8786 26.7652L78.2748 23.8524C78.2896 23.7689 78.2707 23.6827 78.2221 23.613C78.1736 23.5433 78.0994 23.4957 78.0158 23.4806ZM160.996 17.1217C160.848 15.2249 160.261 13.2461 159.057 11.8097L159.025 11.7709L158.994 11.7339C158.498 11.1371 157.174 9.54157 153.094 9.55429C151.423 9.55429 149.75 9.66717 148.086 9.82653C147.134 9.91285 146.182 10.0102 145.233 10.1098C144.618 10.1745 144.619 10.5475 144.622 11.0494C144.622 11.0803 144.622 11.1117 144.622 11.1435V31.245C144.61 31.3427 144.617 31.442 144.642 31.5369C144.669 31.6319 144.714 31.7208 144.774 31.7983C144.925 31.9066 145.11 31.9541 145.294 31.9311H148.938C149.027 31.9564 149.122 31.9579 149.212 31.9354C149.302 31.9129 149.386 31.8671 149.452 31.8027C149.519 31.7382 149.569 31.6573 149.594 31.5681C149.621 31.4788 149.623 31.3841 149.602 31.2937C149.61 30.1261 149.608 28.9741 149.605 27.8182C149.603 27.2389 149.602 26.6585 149.602 26.0746C149.602 26.0437 149.61 26.0132 149.626 25.9869C149.642 25.9605 149.666 25.9394 149.694 25.9261C149.722 25.9129 149.753 25.9079 149.784 25.9118C149.814 25.9158 149.844 25.9285 149.867 25.9485C151.319 27.2123 153.49 27.562 155.354 27.022C157.329 26.4553 158.966 24.9414 159.907 23.111C160.848 21.2805 161.153 19.1757 160.996 17.1217ZM155.906 19.5431C155.489 21.1699 154.743 22.4205 152.503 22.5554C151.383 22.6196 149.604 21.9866 149.604 20.9441V14.7092C149.604 14.4701 149.63 14.2953 149.863 14.1913C150.343 13.9699 151.634 13.7906 152.623 13.8216C156.882 13.9433 156.122 18.7396 155.916 19.5431H155.906ZM91.0456 18.0115C90.6912 18.5139 90.6912 18.6843 91.0232 19.1536L96.8936 26.7033C96.928 26.7517 96.9488 26.8089 96.9528 26.8683C96.9568 26.9277 96.944 26.9871 96.9152 27.0396C96.8888 27.0931 96.848 27.1379 96.7968 27.1689C96.7464 27.1998 96.6872 27.2157 96.628 27.2145H91.7936C91.74 27.2143 91.688 27.2009 91.6408 27.1753C91.5936 27.1498 91.5536 27.1132 91.524 27.0685L86.4688 20.5125C86.4376 20.4727 86.3944 20.4434 86.3464 20.4286C86.2976 20.4137 86.2464 20.4141 86.1976 20.4295C86.1496 20.4449 86.1072 20.4747 86.0768 20.5149C86.0456 20.555 86.028 20.6037 86.0256 20.6542V26.8914C86.0256 26.9773 85.9904 27.0595 85.9296 27.12C85.8688 27.1805 85.7864 27.2145 85.7008 27.2145H81.336C81.2504 27.214 81.1688 27.1797 81.108 27.1193C81.0472 27.0588 81.0136 26.9769 81.0128 26.8914V5.82042C81.012 5.7562 81.024 5.69252 81.0488 5.63305C81.0728 5.57359 81.1088 5.51952 81.1536 5.47402C81.1992 5.42851 81.2528 5.39245 81.312 5.36795C81.372 5.34344 81.4352 5.33098 81.5 5.33128H85.5392C85.6672 5.33128 85.7904 5.38234 85.8816 5.47324C85.9728 5.56415 86.024 5.68744 86.024 5.816V16.8827C86.0256 16.9278 86.0408 16.9714 86.068 17.0076C86.0952 17.0438 86.132 17.0708 86.1752 17.085C86.2184 17.0993 86.264 17.1 86.308 17.0872C86.3512 17.0743 86.3896 17.0485 86.4176 17.0133C87.3912 15.6853 90.7488 10.9797 91.2872 10.2117C91.3168 10.1685 91.356 10.1333 91.4024 10.109C91.4488 10.0847 91.5 10.0721 91.5528 10.0722H96.2736C96.3344 10.0707 96.3944 10.0871 96.4456 10.1193C96.4976 10.1517 96.5384 10.1984 96.5632 10.2537C96.5912 10.3077 96.6032 10.3686 96.5976 10.4291C96.5912 10.4896 96.568 10.5471 96.5304 10.5946L91.0456 18.0115ZM192.359 19.1536C192.029 18.6843 192.029 18.5139 192.383 18.0115L197.877 10.5946C197.914 10.5465 197.936 10.4892 197.942 10.429C197.947 10.3689 197.937 10.3083 197.91 10.2541C197.883 10.1998 197.842 10.1541 197.79 10.122C197.739 10.0899 197.681 10.0726 197.62 10.0722H192.89C192.838 10.0719 192.786 10.0845 192.74 10.1088C192.694 10.1331 192.654 10.1685 192.625 10.2117C192.086 10.9797 188.729 15.6853 187.755 17.0133C187.727 17.0494 187.689 17.076 187.645 17.0893C187.602 17.1027 187.554 17.1021 187.511 17.0878C187.467 17.0735 187.43 17.0461 187.402 17.0094C187.375 16.9726 187.36 16.9284 187.359 16.8827V5.81599C187.359 5.75233 187.346 5.6893 187.322 5.63049C187.298 5.57168 187.262 5.51825 187.217 5.47324C187.172 5.42823 187.118 5.39252 187.06 5.36816C187.001 5.3438 186.938 5.33127 186.874 5.33127H182.826C182.762 5.33127 182.699 5.3438 182.641 5.36816C182.582 5.39252 182.528 5.42823 182.483 5.47324C182.438 5.51825 182.402 5.57168 182.378 5.63049C182.354 5.6893 182.342 5.75233 182.342 5.81599V26.8869C182.342 26.9729 182.377 27.055 182.438 27.1156C182.498 27.1761 182.581 27.2101 182.666 27.2101H187.031C187.117 27.2095 187.199 27.1753 187.259 27.1148C187.32 27.0543 187.354 26.9725 187.354 26.8869V20.6542C187.358 20.6042 187.377 20.5565 187.407 20.5171C187.438 20.4777 187.48 20.4485 187.528 20.4332C187.575 20.418 187.626 20.4173 187.674 20.4315C187.722 20.4457 187.766 20.4739 187.798 20.5125L192.853 27.0685C192.882 27.113 192.922 27.1496 192.97 27.1751C193.017 27.2005 193.069 27.2141 193.122 27.2145H197.958C198.018 27.2152 198.077 27.1991 198.127 27.1682C198.178 27.1373 198.219 27.0928 198.246 27.0396C198.274 26.9871 198.287 26.9275 198.283 26.8679C198.279 26.8083 198.258 26.7512 198.222 26.7033L192.359 19.1536ZM114.241 23.4776L114.292 23.4894C114.373 23.508 114.444 23.5565 114.49 23.6251C114.537 23.6937 114.555 23.7773 114.542 23.8591L114.142 26.7718C114.134 26.8447 114.102 26.9129 114.051 26.9649C113.999 27.0169 113.931 27.0496 113.858 27.0573L113.782 27.0654C113.221 27.1248 111.49 27.308 110.246 26.7165C109.657 26.4557 109.148 26.0405 108.774 25.5147C108.763 25.4967 108.749 25.4813 108.731 25.4692C108.714 25.4572 108.694 25.4489 108.674 25.4447C108.653 25.4405 108.631 25.4407 108.61 25.4451C108.59 25.4495 108.57 25.4581 108.554 25.4704C107.92 25.9264 105.16 27.7014 102.046 27.126C101.139 26.9689 100.289 26.5775 99.58 25.9905C97.2584 23.9985 97.104 19.7245 99.3832 17.5953C99.9552 17.1169 100.602 16.7356 101.298 16.4665C104.244 15.1894 108.25 15.3798 108.25 15.3798C108.294 14.614 108.153 13.6357 106.245 13.463C104.71 13.294 101.875 13.7924 101.035 13.9401C100.962 13.9529 100.905 13.963 100.864 13.9699C100.801 13.9816 100.735 13.9805 100.673 13.9665C100.61 13.9526 100.55 13.9262 100.498 13.8889C100.445 13.8515 100.4 13.804 100.366 13.7491C100.332 13.6942 100.31 13.6331 100.3 13.5693L99.3832 10.8447C99.3728 10.7817 99.3744 10.7173 99.3888 10.655C99.4024 10.5928 99.4288 10.5339 99.4664 10.4819C99.5032 10.4298 99.5504 10.3857 99.604 10.3518C99.6584 10.318 99.7184 10.2952 99.7816 10.2847C100.654 10.1475 103.086 9.79997 104.14 9.68709C109.53 9.04717 111.181 10.8239 111.786 11.4748L111.786 11.4751C111.823 11.5152 111.857 11.551 111.886 11.5817C113.199 13.0513 113.287 15.123 113.274 16.9889L113.239 21.8582C113.239 23.2493 113.714 23.3576 114.241 23.4776ZM107.975 22.2743C108.142 22.1038 108.236 21.8752 108.237 21.6369V18.8082C108.237 18.5112 107.434 18.5987 107.235 18.6204C107.211 18.6229 107.197 18.6245 107.192 18.6245C105.838 18.8082 104.877 19.0605 104.264 19.3793C103.485 19.7909 103.093 20.4129 103.093 21.2385C103.082 21.5195 103.136 21.7992 103.251 22.0557C103.366 22.3123 103.539 22.5386 103.757 22.717C105.394 23.8856 107.444 22.8387 107.975 22.2743ZM141.611 23.4894L141.559 23.4775C141.035 23.3575 140.56 23.2489 140.56 21.8582L140.596 16.9889C140.609 15.123 140.518 13.0513 139.208 11.5817C139.178 11.5505 139.143 11.5141 139.106 11.4732C138.498 10.8209 136.845 9.04765 131.462 9.68709C130.408 9.79997 127.975 10.1475 127.103 10.2847C126.977 10.3069 126.864 10.3782 126.79 10.4831C126.715 10.588 126.686 10.718 126.707 10.8447L127.623 13.5693C127.633 13.6331 127.656 13.6942 127.69 13.7491C127.724 13.804 127.768 13.8515 127.821 13.8889C127.874 13.9262 127.933 13.9526 127.996 13.9665C128.059 13.9805 128.124 13.9816 128.188 13.9699L128.225 13.9632C128.826 13.8533 131.934 13.2854 133.562 13.4586C135.47 13.6313 135.611 14.6096 135.569 15.3753C135.569 15.3753 131.561 15.185 128.615 16.4621C127.922 16.7321 127.278 17.1133 126.71 17.5909C124.432 19.7201 124.584 23.9941 126.906 25.9861C127.615 26.573 128.465 26.9645 129.372 27.1216C132.488 27.697 135.246 25.9219 135.879 25.466C135.896 25.4537 135.916 25.4451 135.937 25.4407C135.957 25.4362 135.978 25.4361 135.999 25.4403C136.02 25.4444 136.04 25.4528 136.057 25.4648C136.074 25.4768 136.089 25.4923 136.1 25.5102C136.474 26.0361 136.982 26.4513 137.572 26.712C138.816 27.3035 140.546 27.1204 141.107 27.061L141.185 27.0529C141.258 27.0452 141.325 27.0125 141.377 26.9605C141.428 26.9085 141.461 26.8403 141.468 26.7674L141.879 23.8591C141.892 23.7748 141.87 23.6889 141.821 23.62C141.77 23.5509 141.695 23.5041 141.611 23.4894ZM135.567 21.6369C135.566 21.8752 135.472 22.1038 135.306 22.2743C134.772 22.8387 132.723 23.8856 131.087 22.717C130.87 22.5385 130.697 22.3121 130.582 22.0557C130.466 21.7992 130.412 21.5195 130.423 21.2385C130.423 20.4129 130.815 19.7909 131.596 19.3793C132.21 19.0605 133.168 18.8082 134.522 18.6245C134.526 18.6245 134.542 18.6229 134.565 18.6204C134.764 18.5987 135.569 18.5111 135.569 18.8082L135.567 21.6369ZM179.249 23.4776C179.266 23.4815 179.283 23.4855 179.3 23.4894C179.381 23.5075 179.452 23.5549 179.499 23.6224C179.546 23.69 179.567 23.7728 179.557 23.8546L179.156 26.7674C179.149 26.8403 179.117 26.9085 179.066 26.9605C179.014 27.0125 178.946 27.0452 178.873 27.0529C178.85 27.0553 178.824 27.0581 178.794 27.0612C178.23 27.1207 176.502 27.303 175.261 26.712C174.67 26.4519 174.162 26.0365 173.789 25.5102C173.778 25.4925 173.763 25.4773 173.746 25.4654C173.728 25.4536 173.709 25.4453 173.688 25.4412C173.667 25.4371 173.646 25.4372 173.626 25.4414C173.605 25.4457 173.585 25.454 173.568 25.466C172.934 25.9219 170.174 27.697 167.061 27.1216C166.154 26.9649 165.303 26.5735 164.595 25.9861C162.273 23.9941 162.118 19.7201 164.398 17.5909C164.967 17.1133 165.611 16.7321 166.303 16.4621C169.25 15.185 173.256 15.3753 173.256 15.3753C173.298 14.6096 173.158 13.6313 171.25 13.4586C169.614 13.2847 166.486 13.8581 165.906 13.9646L165.876 13.9699C165.813 13.9817 165.747 13.9805 165.684 13.9666C165.622 13.9527 165.562 13.9263 165.509 13.889C165.456 13.8517 165.411 13.8041 165.377 13.7493C165.342 13.6944 165.32 13.6332 165.31 13.5693L164.394 10.8447C164.373 10.7177 164.403 10.5877 164.478 10.4829C164.552 10.3781 164.665 10.3069 164.792 10.2847C165.662 10.1475 168.096 9.79997 169.148 9.68709C174.538 9.04717 176.189 10.8239 176.794 11.4748C176.831 11.515 176.864 11.5509 176.894 11.5817C178.205 13.0513 178.295 15.123 178.282 16.9889L178.246 21.8582C178.246 23.2493 178.722 23.3576 179.249 23.4776ZM172.992 22.2743C173.158 22.1038 173.252 21.8752 173.254 21.6369V18.8082C173.254 18.5112 172.45 18.5987 172.251 18.6204C172.228 18.6229 172.213 18.6245 172.209 18.6245C170.852 18.8082 169.894 19.0605 169.281 19.3793C168.499 19.7909 168.11 20.4129 168.11 21.2385C168.098 21.5195 168.153 21.7992 168.268 22.0557C168.383 22.3123 168.556 22.5386 168.774 22.717C170.411 23.8856 172.459 22.8387 172.992 22.2743Z" fill="#303330"/>
</svg>
