<svg width="100" height="100" viewBox="0 0 100 100" fill="none" xmlns="http://www.w3.org/2000/svg">
<path d="M89.949 18.2739C90.0124 18.8794 90.0209 20.1835 89.949 20.7806C89.822 21.8349 88.7938 24.4517 88.0491 25.2224C87.1689 26.1328 85.7556 25.5146 85.8826 24.3205C85.9291 23.8928 86.5639 23.1603 86.7754 22.6945C89.4835 16.7241 84.0335 10.6648 77.8641 12.9894C70.455 15.7841 73.015 27.3565 81.2492 26.5562C82.3621 26.4461 84.8544 24.926 85.3452 26.4122C85.8572 27.962 83.8981 28.4701 82.7852 28.7242C73.2138 30.9006 66.9768 19.3451 73.912 12.6337C79.417 7.30692 89.1408 10.741 89.949 18.2781V18.2739Z" fill="#57BE8B"/>
<path d="M44.5927 49.6759C45.3078 45.0647 53.0301 44.4888 53.5125 50.9208C54.0498 58.0937 53.0935 65.9272 53.5125 73.1722C53.6394 75.0226 51.4856 75.7805 51.0117 73.7819L51.0032 50.4592C50.7071 47.8043 47.3346 47.9864 46.9496 50.4719C46.5603 55.9257 47.4193 61.9978 46.9454 67.3796C46.8015 69.0141 44.9947 69.0056 44.6604 67.9259C44.2373 66.5624 44.7958 63.5306 44.5758 61.9046C44.2415 59.4402 40.8098 59.3556 40.5221 61.8919C40.3613 63.3147 40.7802 65.4107 40.4883 66.7148C40.2809 67.6379 38.9523 67.9301 38.3768 67.2526C37.6955 66.4481 38.161 63.6576 38.0214 62.5186C37.759 60.3676 34.5558 60.3633 34.1412 62.2434C33.8154 63.7169 34.5347 67.278 33.8619 68.3832C33.4599 69.0437 32.4105 69.2131 31.9112 68.5949C31.0184 67.4982 32.5205 64.9703 30.2398 64.1996C28.7377 63.6915 27.6629 64.8009 27.5317 66.2745C27.3456 68.3832 27.4514 71.4827 27.5317 73.6464C27.5783 74.904 28.6996 78.5498 26.3723 78.101C25.4118 77.9147 25.2383 75.7424 25.1876 74.8998C25.0352 72.5243 24.9125 67.6083 25.2087 65.3514C25.6022 62.3492 29.1397 60.7868 31.7631 62.129C32.1609 58.8136 36.35 57.1749 38.8803 59.4402C40.3402 57.683 42.4685 57.069 44.5885 58.0556V49.6759H44.5927Z" fill="#353535"/>
<path d="M28.5939 79.4008C28.9028 79.6888 29.4529 81.2131 29.766 81.7509C31.5347 84.7573 34.3401 87.065 37.941 87.3444C40.9072 87.5773 46.2599 87.5985 49.2135 87.3444C54.7947 86.866 57.1219 80.9506 57.7101 76.1192C58.0105 73.6464 57.8412 71.2243 58.5225 68.7896C58.9372 67.316 60.1093 65.8425 58.4379 64.4706C56.978 63.2765 56.0218 64.4706 54.8708 64.1276C54.0372 63.8778 53.8595 62.5143 54.7016 61.9892C56.9865 60.558 60.4139 62.0909 61.3533 64.5256C62.3477 67.0874 61.0106 68.345 60.5959 70.712C60.2997 72.393 60.4012 74.1122 60.2151 75.8101C59.5634 81.7255 56.8342 88.547 50.2628 89.6522C47.377 90.1349 38.7492 90.1476 35.9607 89.487C31.9875 88.5512 28.01 84.7742 26.6898 80.9167C26.182 79.4305 27.6038 78.482 28.5939 79.4051V79.4008Z" fill="#353535"/>
<path d="M18.7561 10.0253C30.5955 9.2419 32.5292 26.9287 21.0156 28.8892C7.96604 31.108 5.64301 10.8975 18.7561 10.0253ZM18.443 12.5235C8.90118 13.6625 11.3004 28.7325 21.1426 26.3444C29.3218 24.3627 27.3289 11.4649 18.443 12.5235Z" fill="#57BE8B"/>
<path d="M49.4124 10.0207C56.208 9.68617 61.1925 16.4696 58.7891 22.855C55.7637 30.9044 44.3559 31.0526 41.1273 23.0751C38.6943 17.0751 42.951 10.334 49.4124 10.0164V10.0207ZM48.9384 12.5232C40.1964 13.5775 41.3558 27.2629 50.4575 26.5727C59.7835 25.8656 58.5945 11.3587 48.9384 12.5232Z" fill="#57BE8B"/>
<path d="M49.0991 38.6786C56.9568 37.9334 62.1614 46.8424 57.7692 53.4692C57.1387 54.4176 55.1119 57.0175 54.1767 54.9554C53.6774 53.8503 54.8242 53.3633 55.3869 52.6477C58.1881 49.0866 57.1049 43.6921 52.9454 41.7866C47.3177 39.2037 41.4276 44.395 43.1836 50.3103C43.4671 51.2715 45.0327 53.249 43.1921 53.7656C42.0919 54.0747 41.3895 52.4402 41.0806 51.6315C38.8084 45.7076 42.8112 39.2799 49.0991 38.6829V38.6786Z" fill="#57BE8B"/>
<path d="M70.9839 26.7596C72.0545 26.5352 72.8753 27.7462 72.2068 28.6228L58.9752 40.7414C57.4562 41.7069 56.3179 39.5685 57.727 38.5523C61.9541 35.2114 65.7497 30.7526 69.9303 27.4371C70.1842 27.2339 70.692 26.8232 70.9839 26.7596Z" fill="#353535"/>
<path d="M27.5065 26.6068C27.7435 26.556 27.9805 26.5475 28.2174 26.6068L41.2374 38.9456C42.2021 39.9153 41.3601 41.4905 40.0526 41.0755L27.2315 28.8552C26.4275 28.2582 26.4952 26.8354 27.5065 26.611V26.6068Z" fill="#353535"/>
<path d="M50.8002 30.8537C50.9906 31.0612 51.1344 31.5312 51.1683 31.8192C51.2741 32.7634 51.2783 35.2702 51.1514 36.1933C50.9271 37.7981 48.9637 37.7981 48.7014 36.3287C48.5491 35.4861 48.5533 32.5475 48.676 31.6794C48.8241 30.6124 50.0512 30.0323 50.8044 30.858L50.8002 30.8537Z" fill="#353535"/>
</svg>
