<svg width="83" height="32" viewBox="0 0 83 32" fill="none" xmlns="http://www.w3.org/2000/svg">
<g clip-path="url(#clip0_1000_11005)">
<path fill-rule="evenodd" clip-rule="evenodd" d="M25.9538 26.1219H25.0451C25.0162 26.1221 24.9878 26.129 24.9622 26.1422C24.9365 26.1554 24.9143 26.1744 24.8973 26.1977L23.2698 28.937C23.1952 29.0372 23.1342 29.0372 23.0623 28.937L21.4864 26.2004C21.4692 26.1769 21.4468 26.1577 21.4209 26.1443C21.395 26.1309 21.3664 26.1237 21.3372 26.1232H20.4462C20.4215 26.1234 20.397 26.1284 20.3742 26.1381C20.3514 26.1477 20.3307 26.1617 20.3133 26.1793C20.2959 26.1969 20.2822 26.2178 20.2729 26.2407C20.2636 26.2636 20.2589 26.2881 20.2591 26.3129V31.8131C20.2589 31.8377 20.2636 31.8622 20.2729 31.885C20.2822 31.9079 20.296 31.9286 20.3134 31.9461C20.3308 31.9636 20.3515 31.9775 20.3743 31.987C20.3971 31.9965 20.4215 32.0014 20.4462 32.0014H21.3345C21.3592 32.0014 21.3837 31.9965 21.4065 31.987C21.4293 31.9775 21.4499 31.9636 21.4673 31.9461C21.4847 31.9286 21.4985 31.9079 21.5078 31.885C21.5172 31.8622 21.5219 31.8377 21.5217 31.8131V28.983C21.5217 28.8015 21.6939 28.7243 21.8011 28.872L23.0216 30.881C23.0389 30.9045 23.0615 30.9237 23.0875 30.9368C23.1135 30.95 23.1423 30.9569 23.1715 30.9569C23.2007 30.9569 23.2295 30.95 23.2555 30.9368C23.2816 30.9237 23.3041 30.9045 23.3214 30.881L24.5813 28.8652C24.6884 28.7202 24.8607 28.7988 24.8607 28.979V31.809C24.8605 31.8337 24.8652 31.8581 24.8745 31.881C24.8838 31.9038 24.8976 31.9246 24.915 31.9421C24.9324 31.9596 24.9531 31.9735 24.9759 31.983C24.9987 31.9924 25.0231 31.9973 25.0478 31.9973H25.9524C26.0024 31.9973 26.0504 31.9775 26.0857 31.9422C26.1211 31.9068 26.1409 31.8589 26.1409 31.809V26.3088C26.1409 26.2587 26.1211 26.2107 26.0858 26.1752C26.0505 26.1397 26.0025 26.1195 25.9524 26.1192M32.2886 29.697H31.1019C31.0719 29.6956 31.0427 29.6871 31.0166 29.6722C30.9906 29.6573 30.9685 29.6364 30.9522 29.6112C30.9359 29.586 30.9258 29.5573 30.9228 29.5275C30.9199 29.4976 30.9241 29.4675 30.9351 29.4396L31.5264 27.8613C31.5383 27.8269 31.5606 27.797 31.5903 27.7759C31.6199 27.7547 31.6554 27.7434 31.6919 27.7434C31.7283 27.7434 31.7639 27.7547 31.7935 27.7759C31.8232 27.797 31.8455 27.8269 31.8573 27.8613L32.4541 29.4396C32.4651 29.4674 32.4693 29.4974 32.4664 29.5271C32.4636 29.5569 32.4536 29.5855 32.4374 29.6107C32.4213 29.6358 32.3993 29.6568 32.3735 29.6718C32.3476 29.6868 32.3185 29.6954 32.2886 29.697ZM32.3185 26.233C32.306 26.2001 32.284 26.1716 32.2552 26.1514C32.2265 26.1311 32.1923 26.1199 32.1571 26.1192H31.2348C31.1995 26.1198 31.1651 26.1309 31.1361 26.1512C31.1071 26.1715 31.0848 26.1999 31.0721 26.233L28.7666 31.7331C28.7542 31.7612 28.7488 31.7918 28.751 31.8223C28.7531 31.8529 28.7627 31.8825 28.7788 31.9085C28.795 31.9345 28.8173 31.9562 28.8437 31.9717C28.8702 31.9872 28.9 31.996 28.9307 31.9973H29.8569C29.8934 31.9968 29.9289 31.9851 29.9585 31.9638C29.9881 31.9425 30.0104 31.9125 30.0224 31.8781L30.3642 30.9582C30.3763 30.9239 30.3987 30.8941 30.4282 30.8728C30.4578 30.8515 30.4932 30.8397 30.5296 30.839H32.865C32.9013 30.8394 32.9367 30.8509 32.9663 30.872C32.9959 30.8931 33.0183 30.9227 33.0305 30.9569L33.379 31.8795C33.3912 31.9136 33.4136 31.9433 33.4432 31.9643C33.4728 31.9854 33.5081 31.9969 33.5445 31.9973H34.4558C34.4865 31.9961 34.5164 31.9873 34.5428 31.9718C34.5693 31.9563 34.5915 31.9346 34.6076 31.9085C34.6237 31.8824 34.6331 31.8528 34.635 31.8222C34.6369 31.7916 34.6313 31.761 34.6186 31.7331L32.313 26.233H32.3185ZM48.1631 28.9099C48.1392 28.8785 48.1263 28.8402 48.1263 28.8008C48.1263 28.7614 48.1392 28.7231 48.1631 28.6918L49.8407 26.6028C49.8622 26.5768 49.8758 26.5453 49.8802 26.5118C49.8845 26.4784 49.8792 26.4444 49.8651 26.4138C49.8509 26.3833 49.8283 26.3573 49.8 26.339C49.7717 26.3206 49.7388 26.3106 49.7051 26.3102H48.7828C48.7566 26.3106 48.7308 26.3169 48.7073 26.3286C48.6838 26.3403 48.6633 26.3572 48.6472 26.3779L46.7594 28.7947C46.7368 28.8239 46.7057 28.8451 46.6703 28.8555C46.6349 28.8659 46.5972 28.8648 46.5625 28.8525C46.5277 28.8402 46.4978 28.8172 46.4769 28.7869C46.456 28.7566 46.4452 28.7205 46.4461 28.6837V26.489C46.4463 26.4657 46.4419 26.4426 46.4331 26.421C46.4243 26.3994 46.4114 26.3797 46.395 26.3631C46.3786 26.3465 46.3592 26.3333 46.3377 26.3242C46.3162 26.3151 46.2931 26.3103 46.2698 26.3102H45.433C45.3861 26.3109 45.3414 26.3301 45.3086 26.3636C45.2759 26.3971 45.2577 26.4422 45.2581 26.489V31.8212C45.2577 31.868 45.2759 31.9131 45.3086 31.9466C45.3414 31.9801 45.3861 31.9993 45.433 32H46.2644C46.2877 31.9998 46.3108 31.9951 46.3322 31.986C46.3537 31.9769 46.3732 31.9637 46.3896 31.9471C46.406 31.9305 46.4189 31.9108 46.4277 31.8892C46.4364 31.8676 46.4408 31.8445 46.4407 31.8212V30.8878C46.4402 30.8469 46.4541 30.8071 46.48 30.7753L47.1879 29.8948C47.2049 29.8733 47.2267 29.8561 47.2516 29.8446C47.2764 29.8331 47.3037 29.8277 47.3311 29.8287C47.3585 29.8298 47.3852 29.8373 47.4091 29.8507C47.433 29.864 47.4534 29.8829 47.4687 29.9056L48.8412 31.9187C48.8574 31.9422 48.8791 31.9613 48.9044 31.9745C48.9296 31.9877 48.9577 31.9946 48.9863 31.9946H50.0197C50.0518 31.9929 50.0828 31.9826 50.1096 31.9647C50.1363 31.9469 50.1577 31.9222 50.1716 31.8932C50.1855 31.8643 50.1913 31.8321 50.1884 31.8001C50.1855 31.7681 50.1741 31.7375 50.1553 31.7115L48.1631 28.9099ZM57.8884 30.9027H55.1502C55.0954 30.9031 55.0427 30.8818 55.0036 30.8434C54.9645 30.8051 54.9421 30.7529 54.9414 30.6981V29.8636C54.9417 29.8366 54.9474 29.8099 54.9581 29.785C54.9688 29.7602 54.9843 29.7377 55.0037 29.7188C55.0231 29.6999 55.046 29.6851 55.0711 29.675C55.0963 29.665 55.1232 29.6601 55.1502 29.6604H56.9838C57.0388 29.6604 57.0915 29.6388 57.1306 29.6003C57.1697 29.5617 57.192 29.5093 57.1927 29.4545V28.8313C57.192 28.7766 57.1696 28.7243 57.1305 28.686C57.0914 28.6477 57.0386 28.6264 56.9838 28.6268H55.1502C55.1231 28.6271 55.0961 28.6221 55.0708 28.612C55.0456 28.6019 55.0226 28.5869 55.0032 28.5679C54.9838 28.5489 54.9683 28.5262 54.9577 28.5012C54.9471 28.4762 54.9416 28.4493 54.9414 28.4222V27.6094C54.9421 27.5546 54.9645 27.5024 55.0036 27.4641C55.0427 27.4257 55.0954 27.4044 55.1502 27.4048H57.6972C57.7245 27.4055 57.7516 27.4009 57.777 27.3911C57.8025 27.3813 57.8258 27.3667 57.8455 27.3479C57.8653 27.3292 57.8812 27.3067 57.8923 27.2819C57.9034 27.257 57.9094 27.2302 57.9101 27.2029V26.5147C57.9094 26.46 57.8871 26.4078 57.8479 26.3694C57.8088 26.3311 57.7561 26.3098 57.7013 26.3102H53.9039C53.8491 26.3098 53.7964 26.3311 53.7572 26.3694C53.7181 26.4078 53.6957 26.46 53.695 26.5147V31.7982C53.6957 31.8529 53.7181 31.9051 53.7572 31.9435C53.7964 31.9818 53.8491 32.0031 53.9039 32.0027H57.8871C57.9419 32.0031 57.9946 31.9818 58.0337 31.9435C58.0728 31.9051 58.0952 31.8529 58.0959 31.7982V31.11C58.0952 31.0552 58.0728 31.003 58.0337 30.9647C57.9946 30.9263 57.9419 30.905 57.8871 30.9054M64.5325 26.1246H60.2943C60.271 26.1258 60.2481 26.1316 60.227 26.1416C60.2059 26.1517 60.187 26.1658 60.1714 26.1832C60.1558 26.2006 60.1438 26.2208 60.136 26.2429C60.1282 26.2649 60.1249 26.2882 60.1262 26.3115V27.0715C60.1249 27.0948 60.1282 27.1182 60.136 27.1402C60.1438 27.1622 60.1558 27.1825 60.1714 27.1999C60.187 27.2172 60.2059 27.2313 60.227 27.2414C60.2481 27.2515 60.271 27.2573 60.2943 27.2585H61.6736C61.6969 27.2597 61.7198 27.2655 61.7409 27.2755C61.762 27.2856 61.7809 27.2997 61.7965 27.3171C61.8122 27.3345 61.8242 27.3547 61.832 27.3768C61.8397 27.3988 61.8431 27.4221 61.8418 27.4454V31.8171C61.8399 31.8639 61.8565 31.9095 61.8879 31.9442C61.9194 31.9789 61.9632 31.9999 62.0099 32.0027H62.8088C62.8555 31.9999 62.8993 31.9789 62.9308 31.9442C62.9622 31.9095 62.9788 31.8639 62.9769 31.8171V27.4427C62.9756 27.4194 62.979 27.3961 62.9867 27.3741C62.9945 27.352 63.0065 27.3318 63.0222 27.3144C63.0378 27.297 63.0567 27.2829 63.0778 27.2728C63.0989 27.2628 63.1218 27.257 63.1451 27.2558H64.5325C64.5558 27.2546 64.5787 27.2488 64.5998 27.2387C64.6209 27.2286 64.6398 27.2145 64.6554 27.1972C64.671 27.1798 64.6831 27.1595 64.6908 27.1375C64.6986 27.1155 64.702 27.0921 64.7007 27.0688V26.3088C64.7029 26.2618 64.6865 26.2158 64.655 26.1808C64.6235 26.1459 64.5795 26.1247 64.5325 26.1219M39.996 29.342C39.7681 29.3556 39.5457 29.3583 39.3111 29.3542C39.2625 29.3528 39.2164 29.3325 39.1827 29.2975C39.149 29.2626 39.1303 29.2158 39.1307 29.1673V27.421C39.1303 27.3969 39.1348 27.373 39.1437 27.3505C39.1527 27.3281 39.166 27.3077 39.1829 27.2904C39.1998 27.2732 39.2199 27.2595 39.2422 27.25C39.2644 27.2406 39.2883 27.2356 39.3124 27.2354C39.5186 27.2354 39.7193 27.2354 39.9471 27.2517C40.6917 27.2842 41.2559 27.6364 41.2559 28.2894C41.2559 28.8652 40.8626 29.2824 39.996 29.342ZM42.4805 28.3219C42.4805 27.0417 41.5312 26.1313 39.8834 26.1219C39.2934 26.1219 38.7116 26.1368 38.0864 26.1462C38.038 26.1473 37.9919 26.1674 37.9581 26.2021C37.9244 26.2368 37.9057 26.2834 37.906 26.3318V31.8144C37.9057 31.8631 37.9246 31.9099 37.9586 31.9446C37.9927 31.9794 38.0391 31.9993 38.0878 32H38.949C38.9977 31.9993 39.0441 31.9794 39.0781 31.9446C39.1122 31.9099 39.1311 31.8631 39.1307 31.8144V30.6507C39.1307 30.5044 39.1592 30.4638 39.3138 30.4638C39.4996 30.4638 39.7803 30.4638 39.9919 30.4638C40.0312 30.4638 40.0733 30.4638 40.1126 30.4638C40.3147 30.4638 40.3689 30.4461 40.4259 30.5599L41.0809 31.893C41.0955 31.9238 41.1186 31.9498 41.1474 31.968C41.1762 31.9862 41.2096 31.9959 41.2437 31.996H42.2323C42.2639 31.9953 42.2948 31.9867 42.3222 31.9708C42.3495 31.955 42.3723 31.9324 42.3884 31.9053C42.4046 31.8782 42.4136 31.8474 42.4145 31.8158C42.4154 31.7843 42.4083 31.753 42.3937 31.725L41.6356 30.1982C41.6157 30.1581 41.6108 30.1122 41.6217 30.0687C41.6326 30.0253 41.6587 29.9871 41.6953 29.9612C41.9508 29.7729 42.1564 29.5252 42.2942 29.2395C42.4319 28.9538 42.4978 28.6388 42.486 28.3219M77.1954 9.87598C78.6872 9.87598 77.8369 15.9316 75.2221 16.3326C75.1043 15.8867 75.0405 15.4282 75.0323 14.967C75.0323 12.9891 75.7782 9.87598 77.2022 9.87598M40.1045 19.1599C37.3988 19.1599 39.2907 9.86379 41.4742 9.86379C42.9254 9.86379 42.6948 19.1599 40.1045 19.1599ZM30.6815 9.83263C32.233 9.83263 31.3122 15.704 28.7625 16.6672C28.5876 16.1169 28.4926 15.5443 28.4804 14.967C28.4804 12.9891 29.2683 9.83263 30.6869 9.83263M81.9991 15.1824C81.9232 15.257 81.2206 19.481 78.1895 19.481C77.0123 19.481 76.181 18.5977 75.6683 17.5424C79.3762 16.7295 80.6185 13.8196 80.6185 11.8295C80.6131 9.51156 78.9544 8.67027 77.5426 8.67027C75.2371 8.67027 72.233 10.7972 72.233 14.963C72.2327 15.3251 72.2536 15.687 72.2954 16.0468C71.4966 15.8056 70.8036 15.3843 70.3344 14.6649C71.026 11.5897 70.904 8.6486 69.4691 8.6486C68.6635 8.6486 67.9773 9.69851 67.9773 11.988C67.9891 12.9751 68.236 13.9451 68.6974 14.818C68.4031 16.212 67.3914 19.6178 66.1057 19.6178C64.3318 19.6178 64.8851 11.2551 64.8851 10.0196C64.8851 9.01166 62.429 7.95498 61.8906 8.49009C61.656 8.72311 61.6194 10.086 61.6194 11.8498C61.6115 13.4404 61.7555 15.0281 62.0493 16.5914C61.8784 17.4516 61.1488 19.6598 59.7831 19.6598C57.6674 19.6598 58.7388 11.7401 58.7388 10.4653C58.7388 9.55491 56.3763 8.70414 55.7999 9.27177C55.572 9.49801 55.4147 11.0993 55.4147 13.5933C55.4095 14.6578 55.4806 15.7213 55.6276 16.7756C55.4052 17.8811 54.5277 19.6598 53.1051 19.6598C50.8429 19.6598 51.8438 10.9801 52.446 5.62891C52.8135 5.56253 53.1892 5.50699 53.577 5.46364C54.5671 5.3539 55.7822 5.16289 55.7822 5.76032C55.7822 7.16924 56.7248 7.60275 57.4232 7.60275C58.1854 7.60275 58.8744 7.00396 58.8744 5.85922C58.8744 4.71447 57.8898 3.66727 56.1267 3.66727C54.9513 3.68114 53.7788 3.78987 52.6209 3.9924C52.7145 3.09693 52.7769 2.38841 52.7769 1.96031C52.7769 0.766798 50.3072 -0.373882 49.8203 0.109755C49.7268 0.203231 49.3958 2.0714 49.111 4.65893C47.3968 4.99896 45.6988 5.297 44.0212 5.297C43.4407 5.297 43.5153 7.03918 45.5022 7.03918C46.6441 7.03918 47.763 6.78856 48.9307 6.48239C48.772 8.2923 48.6594 10.2987 48.6594 12.2305C48.6421 13.7446 48.7496 15.2575 48.9808 16.7539C48.7584 17.7158 48.0546 19.6571 46.7797 19.6571C44.2951 19.6571 45.4737 11.1345 45.4737 9.85972C45.4737 9.25416 43.2129 7.9482 42.745 8.41017C42.6799 8.47655 42.6406 8.83555 42.6406 8.83555C42.6406 8.83555 42.3395 8.61608 41.5054 8.61608C38.3333 8.61608 35.7876 12.5014 35.7876 16.0468C35.7876 16.2175 35.7958 16.38 35.8053 16.5426C35.3143 17.6833 34.072 19.6585 31.8221 19.6585C30.7019 19.6585 29.8814 18.912 29.3321 17.9678C32.8081 16.9924 34.1873 13.9578 34.1873 12.0205C34.1873 9.75135 32.2452 8.6337 30.8334 8.6337C28.3841 8.6337 25.6798 11.0722 25.6798 15.1797C25.6638 16.2466 25.8756 17.3047 26.301 18.2834C25.867 18.9743 25.1848 19.6639 24.2666 19.6639C21.7265 19.6639 23.4285 11.1968 23.4285 10.2932C23.4285 10.0697 23.4285 9.64839 23.0284 9.36525C22.4968 8.99541 19.4358 8.5917 18.3983 8.38849C18.4065 8.1636 18.4092 7.95769 18.4092 7.77344C18.4092 6.13693 17.3744 5.76032 16.7085 5.76032C15.5815 5.76032 15.3455 7.0148 15.3455 7.31826C15.3502 7.7312 15.4648 8.13546 15.6777 8.48949C15.8905 8.84352 16.1939 9.13457 16.5566 9.33273C16.5566 12.3904 14.5928 19.6056 9.32258 19.6056C5.34753 19.6056 3.89775 15.5414 3.89775 12.5136C3.89775 7.41851 6.90988 3.47354 8.86147 3.47354C11.3026 3.47354 9.15034 8.15277 11.5969 8.15277C13.322 8.15277 13.5621 6.49729 13.5621 5.73593C13.5621 4.31076 12.0608 1.64195 8.87096 1.64195C3.77297 1.63924 0 7.78835 0 13.0596C0 18.1249 3.5058 22.204 8.42613 22.204C16.0209 22.204 17.9196 14.2003 18.3156 9.72154C18.8025 9.85701 20.0054 10.0643 20.1234 10.1821C20.3214 10.3786 19.7396 13.0962 19.7396 15.7108C19.7396 18.9892 20.8246 21.6133 23.4258 21.6133C25.0532 21.6133 26.3674 20.4401 27.055 19.5379C27.5353 20.1618 28.151 20.6688 28.8557 21.0207C29.5604 21.3727 30.3358 21.5605 31.1236 21.57C33.6869 21.57 35.3726 19.9836 36.223 18.7074C36.9377 20.6244 38.3997 21.57 39.7234 21.57C41.5705 21.57 42.684 19.1084 42.7477 18.7115C43.3065 20.4279 44.6098 21.6093 46.0799 21.6093C47.9433 21.6093 49.0636 19.9348 49.5179 18.8876C50.1784 20.6569 51.2335 21.6093 52.747 21.6093C54.4816 21.6093 55.6276 20.0459 56.1376 18.996C56.68 20.5282 57.5941 21.6093 59.0466 21.6093C60.9901 21.6093 62.1971 19.6436 62.5999 18.6411C63.2387 20.3318 64.2409 21.5497 65.7734 21.5497C67.4863 21.5497 68.9727 19.1193 69.861 16.3692C70.6336 17.0929 71.6132 17.5575 72.663 17.6982C73.5269 20.1678 75.5463 21.5483 77.6742 21.5483C81.3942 21.5483 82.8278 17.7551 82.9742 16.8704C83.1207 15.9858 82.2717 14.8952 81.9855 15.1784" fill="#8AA651"/>
</g>
<defs>
<clipPath id="clip0_1000_11005">
<rect width="83" height="32" fill="white"/>
</clipPath>
</defs>
</svg>
