<svg width="640" height="580" viewBox="0 0 640 580" fill="none" xmlns="http://www.w3.org/2000/svg">
<g clip-path="url(#clip0_1440_15586)">
<path d="M345.629 178.29C345.629 153.2 325.4 132.98 300.725 132.98C276.049 132.98 255.82 153.2 255.82 178.29C255.82 203.38 275.863 223.42 300.725 223.42C325.587 223.42 345.629 203.01 345.629 178.29ZM260.65 178.29C260.65 156.01 278.645 137.66 300.911 137.66C323.177 137.66 340.986 155.82 340.986 178.29C340.986 200.76 322.991 218.74 300.911 218.74C278.831 218.74 260.65 200.58 260.65 178.29Z" fill="white"/>
<path d="M-263.121 203.97C-263.121 203.97 32.9196 283.39 284.174 137.66" stroke="#56C58C" stroke-width="4" stroke-miterlimit="10"/>
<mask id="mask0_1440_15586" style="mask-type:luminance" maskUnits="userSpaceOnUse" x="0" y="137" width="288" height="148">
<path d="M287.573 137.66H0.000366211V284.79H287.573V137.66Z" fill="white"/>
</mask>
<g mask="url(#mask0_1440_15586)">
<path d="M-263.121 203.97C-263.121 203.97 32.92 283.39 284.174 137.66" stroke="white" stroke-width="4" stroke-miterlimit="10"/>
</g>
<path d="M299.504 221.78C299.504 221.78 470.422 213.19 639.998 117.7" stroke="white" stroke-width="4" stroke-miterlimit="10" stroke-linecap="round"/>
<path d="M306.245 172.99C306.725 173.83 309.399 174.29 310.242 177.59C311.897 184.01 307.274 187.63 301.612 188.43L293.706 200.55L291.346 201.34C282.412 199.19 296.812 186.85 296.106 183.99C295.94 183.33 295.254 182.73 295.098 181.75C294.706 179.31 295.166 176.86 296.655 174.91C297.262 174.12 299.222 172.84 299.359 172.42C300.182 169.96 299.026 161.72 299.417 158.34C299.917 154.05 305.677 153.7 306.167 159.14C306.372 161.41 305.726 172.12 306.235 173.01L306.245 172.99Z" fill="#57BD8A"/>
<path d="M241.681 173.29C240.721 172.64 239.438 172.97 238.958 173.94C234.785 180.74 234.628 189 238.958 195.8C239.281 196.45 239.918 196.77 240.721 196.77C242.328 196.77 243.288 194.99 242.485 193.69C238.958 188.19 239.115 181.54 242.485 176.2C242.808 175.07 242.641 173.93 241.681 173.29Z" fill="#57BD8A"/>
<path d="M247.134 192.4C248.094 191.91 248.418 190.62 247.938 189.65C246.175 186.41 246.331 183.01 247.938 180.1C248.418 179.13 248.094 177.83 247.134 177.35C246.174 176.87 244.891 177.19 244.411 178.16C242.168 182.37 241.845 187.23 244.411 191.6C244.735 192.25 246.174 192.9 247.134 192.41V192.4Z" fill="#57BD8A"/>
<path d="M359.788 196.42C360.748 197.07 362.031 196.74 362.511 195.77C366.684 188.97 366.841 180.71 362.511 173.91C362.188 173.26 361.551 172.94 360.748 172.94C359.141 172.94 358.181 174.72 358.985 176.02C362.511 181.52 362.354 188.17 358.985 193.51C358.661 194.64 358.828 195.78 359.788 196.42Z" fill="#57BD8A"/>
<path d="M354.328 177.31C353.368 177.8 353.044 179.09 353.524 180.06C355.288 183.3 355.131 186.7 353.524 189.61C353.044 190.58 353.368 191.88 354.328 192.36C355.288 192.84 356.571 192.52 357.051 191.55C359.294 187.34 359.618 182.48 357.051 178.11C356.728 177.46 355.288 176.81 354.328 177.3V177.31Z" fill="#57BD8A"/>
</g>
<defs>
<clipPath id="clip0_1440_15586">
<rect width="640" height="580" fill="white"/>
</clipPath>
</defs>
</svg>
