<svg width="640" height="580" viewBox="0 0 640 580" fill="none" xmlns="http://www.w3.org/2000/svg">
<g clip-path="url(#clip0_1440_15484)">
<path d="M348.909 233.82C350.477 233.75 352.828 233.47 353.376 235.39C354.669 239.85 350.036 237.75 349.154 239.02C348.909 242.21 348.811 246.01 345.637 247.68C342.091 249.55 329.053 249.31 324.596 249C317.553 248.51 315.055 246.54 314.947 239.02C314.075 237.74 309.442 239.85 310.725 235.39C311.283 233.47 313.624 233.75 315.202 233.82C315.603 228.19 314.202 222.44 311.313 217.66C307.992 212.17 303.623 210.6 299.195 206.7C272.178 182.97 276.821 138.47 308.413 121.6C350.281 99.2401 396.742 142.33 378.904 187.14C373.82 199.9 367.453 203.58 358.049 211.93C351.613 217.65 348.419 225.04 348.909 233.81V233.82ZM344.344 228.56C344.344 223.38 346.382 218.25 349.252 214.03C353.788 207.36 361.056 204.3 366.356 198.24C389.709 171.48 375.005 127.56 340.475 121.39C297.853 113.77 269.151 164.81 297.471 197.96C302.81 204.21 310.333 207.3 314.878 214.03C317.749 218.29 319.639 223.33 319.776 228.57H329.494V209.32L325.438 208.5L324.87 203.54C322.215 204.02 315.799 199.42 314.34 199.4C312.811 199.38 312.273 202.71 308.756 201.62C308.276 201.47 301.811 195.09 301.468 194.48C299.607 191.24 302.212 191.03 302.937 189.48C303.995 187.2 299.009 180.48 299.136 177.32C297.5 177.01 294.65 177.92 293.778 176.08C293.308 175.1 293.259 166.11 293.514 164.72C294.052 161.79 297.099 162.88 299.136 162.59C298.989 159.6 303.887 152.61 303.065 150.55C302.829 149.97 300.155 149.15 301.017 146.17C301.164 145.67 307.434 139.08 308.031 138.72C311.401 136.69 312.792 140.42 313.311 140.52C315.574 140.92 321.755 136.21 324.851 136.34C325.154 134.67 324.263 131.76 326.065 130.87C327.564 130.12 338.163 130.12 338.927 131.74L339.28 136.34C342.209 136.19 349.056 141.19 351.074 140.35C351.642 140.11 352.445 137.38 355.365 138.26C355.854 138.41 362.31 144.81 362.663 145.42C364.651 148.86 360.997 150.28 360.899 150.81C360.507 153.12 365.121 159.43 364.994 162.59C366.63 162.9 369.48 161.99 370.352 163.83C371.048 165.29 371.116 176.16 369.5 176.96L364.994 177.32C365.141 180.31 360.243 187.3 361.066 189.36C361.301 189.94 363.975 190.76 363.113 193.74C362.966 194.24 356.697 200.83 356.099 201.19C352.73 203.22 351.339 199.49 350.819 199.39C348.557 198.99 342.375 203.7 339.28 203.57L338.692 208.51L334.637 209.33V228.58H344.354L344.344 228.56ZM334.637 135.81H329.484C330.816 142.02 325.634 140.92 321.5 142.53C317.053 144.27 313.595 149.45 309.775 143.99L306.64 147.19C311.989 151.09 306.914 154.62 305.21 159.16C303.623 163.4 304.71 168.67 298.627 167.31V172.57C304.71 171.21 303.633 176.5 305.21 180.72C306.914 185.26 311.989 188.79 306.64 192.69L309.775 195.89C313.595 190.43 317.053 195.61 321.5 197.35C325.654 198.97 330.816 197.86 329.484 204.07H334.637C333.304 197.86 338.486 198.96 342.62 197.35C347.068 195.61 350.526 190.43 354.346 195.89L357.481 192.69C352.132 188.79 357.206 185.26 358.911 180.72C360.498 176.48 359.41 171.21 365.494 172.57V167.31C359.41 168.67 360.488 163.38 358.911 159.16C357.206 154.62 352.132 151.09 357.481 147.19L354.346 143.99C350.526 149.45 347.068 144.27 342.62 142.53C338.467 140.91 333.304 142.02 334.637 135.81ZM320.344 243.15L342.826 243.64C343.943 243.26 344.256 241.62 344.374 240.53C344.55 238.86 344.432 235.02 343.492 233.82H320.354V243.15H320.344Z" fill="#353535"/>
<path d="M329.484 92.9399C330.111 90.6599 334.627 91.4499 334.627 92.9399V109.27C334.627 111.12 329.484 111.12 329.484 109.27V92.9399Z" fill="white"/>
<path d="M256.631 167.31H272.628C274.44 167.31 274.44 172.56 272.628 172.56H256.631C255.132 172.56 254.456 168.08 256.631 167.31Z" fill="white"/>
<path d="M391.483 167.31H407.479C409.292 167.31 409.292 172.56 407.479 172.56H391.483C389.984 172.56 389.308 168.08 391.483 167.31Z" fill="white"/>
<path d="M279.054 198.35C281.19 197.91 282.257 198.49 282.502 200.77C282.385 201.53 281.944 202.04 281.435 202.57C280.866 203.17 269.209 210.18 268.475 210.37C265.222 211.21 263.528 208.25 266.329 205.82C267.495 204.8 277.908 198.59 279.044 198.36L279.054 198.35Z" fill="white"/>
<path d="M383.016 198.3C384.045 197.95 384.956 198.33 385.906 198.68C387.718 199.34 395.819 204.25 397.446 205.56C400.6 208.11 399.072 211.25 395.633 210.36C394.928 210.18 383.722 203.48 383.006 202.82C382.36 202.22 381.753 201.73 381.615 200.77C381.537 199.94 382.223 198.58 383.016 198.31V198.3Z" fill="white"/>
<path d="M293.892 101.48C296.606 100.71 299.77 107.46 301.014 109.76C302.023 111.63 305.765 116.89 303.776 118.62C300.867 120.23 300.142 118.33 298.751 116.16C297.674 114.49 292.795 106.33 292.472 105.04C292.08 103.47 292.384 102.16 293.902 101.48H293.892Z" fill="white"/>
<path d="M360.486 118.76C359.712 118.06 359.712 116.36 360.006 115.38C360.358 114.19 365.756 104.87 366.735 103.54C369.371 99.97 372.584 101.31 371.653 105.03C371.34 106.29 366.442 114.5 365.374 116.15C364.424 117.63 362.631 120.68 360.496 118.75L360.486 118.76Z" fill="white"/>
<path d="M281.976 140.98C280.839 141.57 279.86 141.79 278.616 141.41C277.47 141.06 268.389 135.56 267.008 134.55C263.471 131.96 264.853 128.58 268.477 129.52C269.594 129.81 278.371 135.15 279.713 136.16C281.721 137.67 282.671 137.72 281.966 140.98H281.976Z" fill="white"/>
<path d="M382.144 140.98C381.439 137.73 382.399 137.68 384.398 136.16C385.74 135.15 394.517 129.81 395.633 129.52C399.258 128.58 400.639 131.96 397.103 134.55C395.722 135.56 386.651 141.06 385.495 141.41C384.251 141.79 383.271 141.57 382.135 140.98H382.144Z" fill="white"/>
<path d="M330.084 147.05C356.484 144.43 364.184 184.04 338.822 191.74C306.917 201.43 297.807 150.25 330.084 147.05ZM329.017 151.92C307.378 154.95 310.218 190.92 334.659 188.05C356.915 185.43 354.026 148.43 329.017 151.92Z" fill="white"/>
<path d="M342.815 163.3C343.158 163.64 343.413 164.48 343.344 164.97C342.972 167.78 333.019 174.09 330.884 176.62C329.453 177.77 323.625 172.19 323.409 171.45C321.764 165.86 328.141 168.18 329.933 171.2C332.666 169.81 338.495 162.84 341.091 162.68C341.581 162.65 342.462 162.95 342.815 163.3Z" fill="white"/>
<path d="M0 248.83C77.6322 261.01 157.704 256.66 233.661 236.25C258.562 229.56 283.874 223.92 307.11 212.04" stroke="#353535" stroke-width="4" stroke-miterlimit="10" stroke-linecap="round"/>
<path d="M372 197C395.486 182.669 421.963 173.24 447.729 165.209C509.991 145.814 574.383 137.033 639 136" stroke="#353535" stroke-width="4" stroke-miterlimit="10" stroke-linecap="round"/>
<mask id="mask0_1440_15484" style="mask-type:luminance" maskUnits="userSpaceOnUse" x="639" y="96" width="368" height="214">
<path d="M1006.99 96.1201H640V309.82H1006.99V96.1201Z" fill="white"/>
</mask>
<g mask="url(#mask0_1440_15484)">
<path d="M358.559 196.26C383.551 182.11 411.726 172.8 439.146 164.87C554.909 131.41 677.585 129.95 796.372 145.4C820.778 148.58 845.084 152.49 869.251 157.15C891.658 161.46 915.05 169.89 937.795 170.74C954.403 171.36 971.002 169.56 987.611 169.56" stroke="#56C58C" stroke-width="4" stroke-miterlimit="10"/>
</g>
</g>
<defs>
<clipPath id="clip0_1440_15484">
<rect width="640" height="580" fill="white"/>
</clipPath>
</defs>
</svg>
