<svg width="106" height="32" viewBox="0 0 106 32" fill="none" xmlns="http://www.w3.org/2000/svg">
<g clip-path="url(#clip0_1000_11007)">
<path fill-rule="evenodd" clip-rule="evenodd" d="M1.50132 22.0627C-0.500465 20.0785 -0.500433 16.8615 1.50138 14.8773L6.93839 9.48816C8.63065 7.81082 11.2117 7.55141 13.1789 8.70993C13.7873 9.06826 13.782 9.89029 13.2815 10.3863C12.7811 10.8824 11.9642 10.8397 11.2849 10.6428C10.415 10.3906 9.43678 10.6045 8.75073 11.2845L3.3137 16.6737C2.31279 17.6658 2.31278 19.2743 3.31367 20.2664C4.31458 21.2585 5.9374 21.2585 6.93833 20.2664L17.8123 9.48823C19.8141 7.50403 23.0597 7.50402 25.0615 9.48821L30.4986 14.8773C32.5005 16.8615 32.5005 20.0786 30.4986 22.0627C28.4967 24.047 25.2511 24.047 23.2493 22.0627L21.437 20.2664L19.1716 22.5118C17.4793 24.1892 14.8983 24.4486 12.9311 23.2901C12.3226 22.9317 12.328 22.1097 12.8284 21.6137C13.3289 21.1176 14.1458 21.1603 14.8251 21.3572C15.695 21.6094 16.6732 21.3955 17.3592 20.7155L19.6894 18.4058C20.6545 17.4492 22.2194 17.4492 23.1846 18.4058L25.0617 20.2664C26.0626 21.2585 27.6853 21.2585 28.6863 20.2664C29.6871 19.2743 29.6871 17.6658 28.6863 16.6737L23.2492 11.2846C22.2483 10.2925 20.6255 10.2925 19.6246 11.2846L8.75068 22.0628C6.74881 24.047 3.50314 24.047 1.50132 22.0627Z" fill="#0468FC"/>
<path d="M55.5973 9C53.7953 9 52.4304 9.63636 51.5294 10.9091C50.7379 9.63636 49.4818 9 47.8167 9C46.0967 9 44.841 9.58333 44.022 10.7765V9.37123H40.5V22.6288H44.022V15.178C44.022 13.2424 45.0321 12.1818 46.588 12.1818C48.0349 12.1818 48.8813 13.1099 48.8813 14.7007V22.6288H52.403V15.178C52.403 13.2424 53.3314 12.1818 54.9419 12.1818C56.3888 12.1818 57.2352 13.1099 57.2352 14.7007V22.6288H60.7568V14.4621C60.7568 11.1477 58.7366 9 55.5973 9Z" fill="#0468FC"/>
<path d="M73.8492 10.9356C72.7845 9.63636 71.3102 9 69.3991 9C67.57 9 66.0141 9.68939 64.7038 11.0417C63.4205 12.3939 62.7652 14.0379 62.7652 16C62.7652 17.9621 63.4205 19.6326 64.7038 20.9849C66.0141 22.3371 67.57 23 69.3991 23C71.3102 23 72.7845 22.3636 73.8492 21.0644V22.6288H77.3708V9.37123H73.8492V10.9356ZM67.3518 18.7046C66.6419 17.9886 66.2872 17.0871 66.2872 16C66.2872 14.9129 66.6419 14.0114 67.3518 13.322C68.0613 12.6061 68.9623 12.2614 70.0544 12.2614C71.1465 12.2614 72.0475 12.6061 72.757 13.322C73.4944 14.0114 73.8492 14.9129 73.8492 16C73.8492 17.0871 73.4944 17.9886 72.757 18.7046C72.0475 19.3939 71.1465 19.7386 70.0544 19.7386C68.9623 19.7386 68.0613 19.3939 67.3518 18.7046Z" fill="#0468FC"/>
<path d="M90.3654 11.6515V9.37121H80.1275V12.5795H85.6151L79.8548 20.3485V22.6288H90.6381V19.4204H84.5776L90.3654 11.6515Z" fill="#0468FC"/>
<path d="M105.363 17.4053C105.445 16.9015 105.5 16.4507 105.5 16C105.5 14.0114 104.845 12.3674 103.534 11.0151C102.252 9.66289 100.586 9 98.593 9C96.4908 9 94.7437 9.66289 93.4059 11.0151C92.0682 12.3409 91.3857 14.0114 91.3857 16C91.3857 18.0152 92.0682 19.6856 93.4334 21.0114C94.7983 22.3371 96.6003 23 98.8661 23C101.487 23 103.48 22.0454 104.818 20.1629L101.978 18.572C101.296 19.447 100.258 19.8977 98.9206 19.8977C96.8184 19.8977 95.5356 19.0757 95.0714 17.4053H105.363ZM95.0168 14.7538C95.4261 13.0568 96.7093 12.0757 98.593 12.0757C100.204 12.0757 101.569 12.9507 101.978 14.7538H95.0168Z" fill="#0468FC"/>
</g>
<defs>
<clipPath id="clip0_1000_11007">
<rect width="105.5" height="32" fill="white"/>
</clipPath>
</defs>
</svg>
