<svg width="100" height="100" viewBox="0 0 100 100" fill="none" xmlns="http://www.w3.org/2000/svg">
<path d="M56.7643 22.0368H54.4109C55.2287 20.7884 55.6768 19.318 55.6768 17.7867C55.6768 13.4932 52.1836 10 47.89 10C43.5964 10 40.1076 13.4932 40.1076 17.7867C40.1076 19.3223 40.5557 20.7884 41.3735 22.0368H39.0201C38.4633 22.0368 38.0109 22.4893 38.0109 23.0461C38.0109 23.6029 38.4633 24.0553 39.0201 24.0553H56.7643C57.3211 24.0553 57.7736 23.6029 57.7736 23.0461C57.7736 22.4893 57.3211 22.0368 56.7643 22.0368ZM47.89 12.0228C51.07 12.0228 53.654 14.6068 53.654 17.7867C53.654 19.4137 52.9753 20.945 51.7834 22.0368H44.0053C42.8091 20.945 42.1348 19.4137 42.1348 17.7867C42.1348 14.6068 44.7188 12.0228 47.8944 12.0228H47.89Z" fill="#57BD8A"/>
<path d="M68.9187 45.0577H62.2413C59.492 45.0577 57.1777 42.8696 57.082 40.1768C57.0341 38.7891 57.5344 37.4711 58.5001 36.4705C59.4659 35.47 60.7579 34.9219 62.1456 34.9219H68.9187C70.5892 34.9219 71.9508 36.2835 71.9508 37.9539V42.0213C71.9508 43.6918 70.5892 45.0534 68.9187 45.0534V45.0577ZM62.1412 36.9447C61.306 36.9447 60.5317 37.2753 59.9488 37.8756C59.3702 38.4759 59.0657 39.2677 59.0961 40.1029C59.1527 41.7211 60.5621 43.0349 62.2369 43.0349H68.9144C69.4712 43.0349 69.9236 42.5825 69.9236 42.0257V37.9583C69.9236 37.4015 69.4712 36.949 68.9144 36.949H62.1412V36.9447Z" fill="#57BD8A"/>
<path d="M66.7262 24.9384C66.1694 24.9384 65.717 24.486 65.717 23.9292C65.717 21.7715 63.9596 20.0141 61.8019 20.0141H58.1304C57.5736 20.0141 57.1212 19.5617 57.1212 19.0048C57.1212 18.448 57.5736 17.9956 58.1304 17.9956H61.8019C65.0732 17.9956 67.7355 20.6579 67.7355 23.9292C67.7355 24.486 67.2831 24.9384 66.7262 24.9384Z" fill="#57BD8A"/>
<path d="M68.4097 46.5716C67.8529 46.5716 67.4005 47.0241 67.4005 47.5809V48.8424C67.4005 50.5129 66.0389 51.8745 64.3685 51.8745H33.104C31.4335 51.8745 30.072 50.5129 30.072 48.8424V27.0874C30.942 27.7442 31.9904 28.0966 33.104 28.0966H64.3685C66.0389 28.0966 67.4005 29.4582 67.4005 31.1286V32.3902C67.4005 32.947 67.8529 33.3994 68.4097 33.3994C68.9665 33.3994 69.419 32.947 69.419 32.3902V31.1286C69.419 28.3402 67.1525 26.0738 64.3641 26.0738H33.0996C32.2688 26.0738 31.4945 25.7432 30.9159 25.1472C30.3417 24.5512 30.0415 23.7682 30.0676 22.9417V22.9199C30.1329 21.3147 31.5336 20.0097 33.1954 20.0097H37.6499C38.2067 20.0097 38.6591 19.5573 38.6591 19.0004C38.6591 18.4436 38.2067 17.9912 37.6499 17.9912H33.1954C30.4548 17.9912 28.1448 20.175 28.0491 22.859C28.0491 22.8677 28.0491 23.0417 28.0491 23.0417V48.8424C28.0491 51.6309 30.3156 53.8973 33.104 53.8973H64.3685C67.1569 53.8973 69.4233 51.6309 69.4233 48.8424V47.5809C69.4233 47.0241 68.9709 46.5716 68.4141 46.5716H68.4097Z" fill="#57BD8A"/>
<path d="M56.5556 44.9536H52.6753C49.8379 44.9536 47.5378 47.2538 47.5378 50.0911V50.9264C47.5378 53.7637 49.8379 56.0639 52.6753 56.0639H56.5556C59.393 56.0639 61.6932 53.7637 61.6932 50.9264V50.0911C61.6932 47.2538 59.393 44.9536 56.5556 44.9536Z" fill="white"/>
<path d="M50.7046 48.573C51.4398 43.8357 59.3788 43.2441 59.8747 49.8519C60.4272 57.2211 59.4441 65.2688 59.8747 72.7119C60.0052 74.6129 57.791 75.3916 57.3038 73.3383L57.2951 49.3778C56.9906 46.6502 53.5235 46.8373 53.1277 49.3908C52.7275 54.9938 53.6105 61.2319 53.1233 66.7609C52.9754 68.4401 51.1179 68.4314 50.7742 67.3221C50.3392 65.9213 50.9134 62.8066 50.6872 61.1362C50.3436 58.6044 46.8156 58.5174 46.5198 61.1231C46.3545 62.5848 46.7852 64.7381 46.485 66.0779C46.2718 67.0263 44.9059 67.3264 44.3143 66.6304C43.6139 65.8039 44.0924 62.9371 43.9489 61.767C43.6792 59.5571 40.3861 59.5527 39.9598 61.4842C39.6248 62.998 40.3643 66.6565 39.6727 67.7919C39.2594 68.4705 38.1806 68.6445 37.6673 68.0094C36.7494 66.8827 38.2937 64.2857 35.9489 63.494C34.4046 62.9719 33.2997 64.1117 33.1649 65.6255C32.9735 67.7919 33.0822 70.9762 33.1649 73.1991C33.2127 74.4911 34.3655 78.2366 31.9729 77.7755C30.9855 77.5841 30.8071 75.3525 30.7549 74.4868C30.5983 72.0464 30.4721 66.9958 30.7766 64.6772C31.1812 61.593 34.8179 59.9878 37.515 61.3667C37.9239 57.9606 42.2306 56.2771 44.832 58.6044C46.3328 56.7991 48.5209 56.1683 50.7003 57.1819V48.573H50.7046Z" fill="#353535"/>
<path d="M34.2567 79.1109C34.5743 79.4067 35.1398 80.9727 35.4617 81.5252C37.2801 84.6138 40.1642 86.9846 43.8662 87.2717C46.9156 87.511 52.4186 87.5327 55.455 87.2717C61.1928 86.7802 63.5854 80.703 64.1901 75.7395C64.4989 73.199 64.3249 70.7107 65.0253 68.2094C65.4516 66.6956 66.6566 65.1817 64.9383 63.7723C63.4375 62.5455 62.4543 63.7723 61.2711 63.4199C60.4141 63.1633 60.2314 61.7625 61.0971 61.2231C63.4462 59.7527 66.9698 61.3275 67.9355 63.8288C68.9578 66.4607 67.5832 67.7526 67.1569 70.1844C66.8524 71.9114 66.9567 73.6775 66.7653 75.4219C66.0954 81.4991 63.2896 88.5072 56.5338 89.6426C53.567 90.1385 44.6971 90.1515 41.8303 89.4729C37.7455 88.5115 33.6564 84.6312 32.2992 80.6682C31.7772 79.1413 33.2388 78.1669 34.2567 79.1152V79.1109Z" fill="#353535"/>
</svg>
