<svg width="143" height="32" viewBox="0 0 143 32" fill="none" xmlns="http://www.w3.org/2000/svg">
<path fill-rule="evenodd" clip-rule="evenodd" d="M130.286 -0.549976C135.909 -4.14998 142.974 -4.84998 142.974 -4.84998C142.974 -4.84998 135.511 3.75002 133.67 7.70002C133.123 9.45002 134.267 10.85 134.267 10.85C134.267 10.85 130.983 7.15002 130.286 -0.549976Z" fill="#1BA0E2"/>
<path fill-rule="evenodd" clip-rule="evenodd" d="M132.725 -1.90002C131.879 -1.50002 131.083 -1.05002 130.286 -0.550025C130.635 3.34998 131.68 6.19998 132.575 8.09998C133.073 8.99998 133.521 9.69998 133.869 10.25C133.67 9.89997 133.521 9.39998 133.471 8.84998C133.023 6.99998 132.575 3.74998 132.725 -1.90002Z" fill="#0D7FCC"/>
<path fill-rule="evenodd" clip-rule="evenodd" d="M125.261 2.8C125.261 2.8 124.913 1.5 124.764 1.1C124.415 0.1 124.067 -0.95 124.067 -2.7C124.067 -5.1 128.147 -7.7 130.685 -8.5C129.988 0.3 130.983 3 131.879 5.9C134.018 13.1 138.944 14.15 139.392 14.65C138.148 14.4 138.845 14.95 138.845 14.95C138.845 14.95 136.854 13.55 132.824 12.4C128.794 11.25 125.659 11.1 123.768 10C122.276 8.9 122.226 8 121.529 7.35C119.241 5.35 113.419 4.5 113.419 4.5L118.395 5.3C118.395 5.3 119.091 5.3 119.887 5C120.086 5 120.634 4.35 121.828 4.75C122.325 4.9 122.176 5.1 123.619 5.5C125.46 6.05 125.261 2.8 125.261 2.8Z" fill="#1BA0E2"/>
<path fill-rule="evenodd" clip-rule="evenodd" d="M1.99026 18C1.99026 23.15 5.87126 23.75 7.86152 23.75C8.45859 23.75 8.9064 23.7 8.9064 23.7V21.1C8.9064 21.1 8.65762 21.15 8.20981 21.15C7.06541 21.15 4.92589 20.75 4.92589 17.7V10.8H8.60786V8.40002H4.92589V4.00002H2.08977V8.45003H0V10.85H1.99026V18ZM11.5932 23.65H14.5289V17.35C14.5289 16.4 14.6284 15.45 14.8772 14.6C15.5738 12.3 17.3152 11 19.1562 11C19.604 11 20.0021 11.1 20.0021 11.1V8.20003C20.0021 8.20003 19.6538 8.15002 19.2557 8.15002C16.9172 8.15002 15.126 9.90002 14.4294 12.15H14.3796C14.3796 12.15 14.4294 11.65 14.4294 11V8.30002H11.5932V23.65ZM21.047 19.3C21.047 22.4 23.6343 24 26.2714 24C29.9534 24 31.1973 20.95 31.1973 20.95H31.247C31.247 20.95 31.1973 21.45 31.1973 22.15V23.6H33.9339V13.9C33.9339 10 31.7446 7.85002 27.8636 7.85002C24.3309 7.85002 22.1416 9.70003 22.1416 9.70003L23.3358 11.85C23.3358 11.85 25.2265 10.35 27.6148 10.35C29.5553 10.35 30.9983 11.2 30.9983 13.75V14H30.3514C27.7143 14 21.047 14.2 21.047 19.3ZM23.9826 19.15C23.9826 16.4 27.9631 16.25 30.2022 16.25H30.9485V16.75C30.9485 19.05 29.3563 21.65 26.8685 21.65C24.9777 21.6 23.9826 20.4 23.9826 19.15ZM41.2978 23.65H44.6813L50.3535 8.25002H47.2686L43.5369 18.65C43.2383 19.5 43.0393 20.75 42.9896 20.75H42.9398C42.89 20.75 42.7408 19.5 42.4422 18.65L38.7105 8.25002H35.5759L41.2978 23.65ZM51.0999 15.95C51.0999 20.5 54.3838 24 59.2102 24C62.8921 24 65.1312 21.8 65.1312 21.8L63.937 19.65C63.937 19.65 62.0463 21.45 59.4092 21.45C56.6726 21.45 54.2843 19.75 54.135 16.35H65.2804C65.2804 16.35 65.38 15.45 65.38 15.05C65.38 11.05 63.0912 7.85002 58.7624 7.85002C54.4335 7.85002 51.0999 11.05 51.0999 15.95ZM54.2345 14.15C54.6823 11.6 56.4736 10.2 58.7126 10.2C60.7029 10.2 62.2951 11.5 62.3946 14.15H54.2345ZM68.1166 19.45C68.1166 23.3 70.5546 23.75 72.2463 23.75C72.7439 23.75 73.1917 23.7 73.1917 23.7V21.1C73.1917 21.1 72.9429 21.15 72.6942 21.15C71.7985 21.15 71.0522 20.8 71.0522 18.95V2.15002H68.1166V19.45ZM74.5351 15.9C74.5351 20.6 78.2171 24 82.7947 24C87.3723 24 91.0543 20.6 91.0543 15.9C91.0543 11.25 87.3723 7.85002 82.7947 7.85002C78.2171 7.85002 74.5351 11.25 74.5351 15.9ZM77.5205 15.9C77.5205 12.7 79.9088 10.4 82.7947 10.4C85.6806 10.4 88.0689 12.7 88.0689 15.9C88.0689 19.15 85.7303 21.45 82.7947 21.45C79.9088 21.45 77.5205 19.15 77.5205 15.9ZM93.9402 23.65H96.8758V16.4H99.0651L103.643 23.65H107.076L101.404 15.1V15L106.479 8.20003H103.145L99.0153 13.9H96.8758V2.15002H93.9402V23.65ZM107.922 19.3C107.922 22.4 110.509 24 113.146 24C116.828 24 118.072 20.95 118.072 20.95H118.122C118.122 20.95 118.072 21.45 118.072 22.15V23.6H120.809V13.9C120.809 10 118.619 7.85002 114.738 7.85002C111.206 7.85002 109.016 9.70003 109.016 9.70003L110.211 11.85C110.211 11.85 112.101 10.35 114.49 10.35C116.43 10.35 117.873 11.2 117.873 13.75V14H117.226C114.589 14 107.922 14.2 107.922 19.3ZM110.907 19.15C110.907 16.4 114.888 16.25 117.127 16.25H117.873V16.75C117.873 19.05 116.281 21.65 113.793 21.65C111.852 21.6 110.907 20.4 110.907 19.15Z" fill="#434343"/>
</svg>
