<svg width="100" height="100" viewBox="0 0 100 100" fill="none" xmlns="http://www.w3.org/2000/svg">
<path d="M21.6049 10.0126C28.8359 9.65694 34.1399 16.87 31.5825 23.6598C28.3631 32.2191 16.2243 32.3767 12.7889 23.8939C10.2 17.5138 14.7295 10.3458 21.6049 10.0081V10.0126ZM21.1051 12.6736C11.8029 13.7948 13.0366 28.3469 22.7215 27.613C32.645 26.8611 31.3798 11.4354 21.1051 12.6736Z" fill="#57BD8A"/>
<path d="M49.4621 10.0126C56.6931 9.65694 61.9971 16.87 59.4397 23.6598C56.2204 32.2191 44.0816 32.3767 40.6462 23.8939C38.0572 17.5138 42.5867 10.3458 49.4621 10.0081V10.0126ZM48.9623 12.6736C39.6601 13.7948 40.8938 28.3469 50.5787 27.613C60.5023 26.8611 59.2371 11.4354 48.9623 12.6736Z" fill="#57BD8A"/>
<path d="M77.3192 10.0126C84.5502 9.65694 89.8542 16.87 87.2968 23.6598C84.0775 32.2191 71.9386 32.3767 68.5032 23.8939C65.9143 17.5138 70.4438 10.3458 77.3192 10.0081V10.0126ZM76.8149 12.6736C67.5127 13.7948 68.7464 28.3469 78.4313 27.613C88.3549 26.8611 87.0896 11.4354 76.8149 12.6736Z" fill="#57BD8A"/>
<path d="M48.3633 46.8432L37.179 57.9734C35.6211 59.1216 33.7256 57.118 34.9322 55.6231L48.9756 41.5797C49.4394 41.1925 50.0877 41.116 50.6415 41.3501C55.5898 45.9652 60.2724 50.927 65.1126 55.6771C66.2563 57.235 64.2617 59.1306 62.7623 57.9239L51.6321 46.8387V72.5256C51.6321 72.5571 51.3845 72.9623 51.3259 73.0344C50.6325 73.9529 49.3628 73.9529 48.6694 73.0344C48.6109 72.9578 48.3633 72.5526 48.3633 72.5256V46.8387V46.8432Z" fill="#57BD8A"/>
<path d="M31.6847 74.2005C31.9323 74.4482 32.0944 74.7859 32.1304 75.1325C32.4006 77.6179 31.9278 80.5671 32.1304 83.102C32.3195 85.5334 34.4897 86.5419 36.6735 86.7311H63.3419C65.5211 86.5464 67.6959 85.5334 67.885 83.102C68.0831 80.5986 67.5518 77.4288 67.8895 75.038C68.1416 73.273 70.8927 73.318 71.1403 75.1416C70.9917 77.8926 71.3654 80.8913 71.1538 83.6153C70.8701 87.2263 67.4347 89.6577 64.0398 89.9819L36.1647 89.9999C32.8193 89.7703 29.2353 87.3524 28.8796 83.8044C28.6004 81.0264 29.0237 77.7981 28.9111 74.975C29.2263 73.7593 30.7887 73.3 31.6892 74.2005H31.6847Z" fill="#353535"/>
<path d="M50.0024 76.3799V79.1895" stroke="#57BD8A" stroke-width="3.60202" stroke-miterlimit="10" stroke-linecap="round"/>
</svg>
